<svg xmlns="http://www.w3.org/2000/svg" version="1.0" width="68" height="74">
    <metadata>M34x37S15a37n25xn27S10e51n19xn16S2a40f6x4S20601n34xn37</metadata>
    <g transform="translate(9,10)">
        <g transform="scale(0.972 0.972) translate(19.333 -4) rotate(45)">
            <path id="base" d="M 6,0 0,6 0,27 12,27 12,6 6,0 z" fill="#000000" />
            <path id="fill"
                d="m 6,2.8125 -4,4 0,3.1875 -2,0 0,3 2,0 0,12 8,0 0,-12 2,0 0,-3 -2,0 0,-3.1875 -4,-4 z"
                fill="#ffffff" />
        </g>
    </g>
    <g transform="translate(15,21)">
        <g transform="scale(0.938 0.915) translate(0 6) rotate(315)">
            <rect id="index" x="0" y="0" width="2" height="15" fill="#000000" />
            <path id="middle"
                d="M 12.625 4.40625 L 2 15 L 4.8125 15 L 14.03125 5.8125 L 12.625 4.40625 z "
                fill="#000000" />
            <rect id="base" x="0" y="17" width="15" height="13" fill="#000000" />
        </g>
    </g>
    <g transform="translate(40,41)">
        <g transform="scale(0.966 1.031)">
            <path id="path2964" d="M 23.5,25.000001 16.5,32 l -7,-7 14,1e-6 z" fill="#000000" />
            <path id="path2952" d="M 16.000001,14.5 23,7.5 l -7,-7 1e-6,14 z" fill="#000000" />
            <path id="path2941"
                d="m 23.5,18 c -1.407313,0 -2.801256,0.551256 -3.875,1.625 C 18.551256,20.698744 18,22.092686 18,23.5 l 0,1.5 1,0 0,-1.5 c 0,-1.151439 0.433982,-2.308981 1.3125,-3.1875 C 21.191017,19.433983 22.348561,19 23.5,19 l 5.5,0 0,-1 -5.5,0 z"
                fill="#000000" />
            <path id="path2954"
                d="M 9,14.5 C 9,13.092687 9.551256,11.698744 10.625,10.625 11.698744,9.551256 13.092686,9 14.5,9 l 1.5,0 0,1 -1.5,0 c -1.151439,0 -2.308981,0.433982 -3.1875,1.3125 C 10.433983,12.191017 10,13.348561 10,14.5 l 0,5.5 -1,0 0,-5.5 z"
                fill="#000000" />
            <path id="path2831" d="M 28.28125,29 0,0.71875 0.71875,0 29,28.28125 28.28125,29 z"
                fill="#000000" />
            <path id="path2939"
                d="m 23.5,15 c -2.17494,-10e-7 -4.340578,0.840577 -6,2.5 -1.659423,1.659422 -2.5,3.82506 -2.5,6 l 0,1.5 3,0 0,-1.5 c 0,-1.407314 0.551256,-2.801256 1.625,-3.875 C 20.698744,18.551256 22.092687,18 23.5,18 l 5.5,0 0,-3 -5.5,0 z"
                fill="#ffffff" />
            <path id="path2956"
                d="m 6,14.5 c -1e-6,-2.17494 0.840577,-4.340578 2.5,-6 C 10.159422,6.840577 12.32506,6 14.5,6 L 16,6 16,9 14.5,9 C 13.092686,9 11.698744,9.551256 10.625,10.625 9.551256,11.698744 9,13.092687 9,14.5 L 9,20 6,20 6,14.5 z"
                fill="#ffffff" />
            <path id="path2958"
                d="M 5,14.5 C 5,12.069185 5.926601,9.635899 7.78125,7.78125 9.6359,5.926601 12.069185,5 14.5,5 l 1.5,0 0,1 -1.5,0 c -2.17494,0 -4.340577,0.840577 -6,2.5 -1.659423,1.659422 -2.500001,3.82506 -2.5,6 L 6,20 5,20 5,14.5 z"
                fill="#000000" />
            <path id="rect2820"
                d="m 23.5,14 c -2.430815,0 -4.864101,0.926601 -6.71875,2.78125 C 14.926601,18.6359 14,21.069185 14,23.5 l 0,1.5 1,0 0,-1.5 c 0,-2.17494 0.840577,-4.340577 2.5,-6 1.659422,-1.659423 3.82506,-2.500001 6,-2.5 l 5.5,0 0,-1 -5.5,0 z"
                fill="#000000" />
        </g>
    </g>
    <g transform="translate(0,0)">
        <g transform="scale(0.95 1)">
            <path id="rect2824"
                d="m 4.75,8 0,4.1875 -3.625,-2.09375 -0.75,1.3125 L 4,13.5 l -3.625,2.09375 0.75,1.3125 3.625,-2.09375 0,4.1875 1.5,0 0,-4.1875 3.625,2.09375 0.75,-1.3125 L 7,13.5 10.625,11.40625 9.875,10.09375 6.25,12.1875 6.25,8 4.75,8 z"
                fill="#000000" />
            <path id="path2901"
                d="m 13.75,0 0,4.1875 L 10.125,2.09375 9.375,3.40625 13,5.5 9.375,7.59375 l 0.75,1.3125 3.625,-2.09375 0,4.1875 1.5,0 0,-4.1875 3.625,2.09375 0.75,-1.3125 L 16,5.5 19.625,3.40625 18.875,2.09375 15.25,4.1875 15.25,0 13.75,0 z"
                fill="#000000" />
        </g>
    </g>
</svg>