<svg xmlns="http://www.w3.org/2000/svg" version="1.0" width="48" height="38">
    <metadata>M24x19S16d20n11xn17S26a0610xn19S20e00n24xn3S2031an10x4</metadata>
    <g transform="translate(13,2)">
        <g>
            <path id="base" d="m 9,0 0,20 c 8,0 8,-8 8,-8 L 17,8 C 17,0 9,0 9,0 z" fill="#000000" />
            <path id="fingers" d="M 9,4 9,0 C 0,0 0,8 0,8 L 2,8 C 2,4 9,4 9,4 z" fill="#000000" />
            <path id="thumb" d="M 9,20 9,18 C 1,18 0.96228649,14.072315 1,14 l -1,0 c 0,6 9,6 9,6 z"
                fill="#000000" />
        </g>
    </g>
    <g transform="translate(34,0)">
        <g transform="translate(14 0) rotate(90)">
            <path id="path2818" d="M 7,0 0,7 14,7 7,0 z" fill="#000000" />
            <path id="path2831" d="M 6,7 8,7 8,14 6,14 6,7 z" fill="#000000" />
            <path id="path2897" d="M 20,0 13,7 27,7 20,0 z" fill="#000000" />
            <path id="path2899" d="m 19,7 2,0 0,7 -2,0 0,-7 z" fill="#000000" />
        </g>
    </g>
    <g transform="translate(0,16)">
        <g>
            <path id="path3379"
                d="M 6 0 C 2.6862915 0 0 2.6862915 0 6 C 0 9.3137085 2.6862915 12 6 12 C 9.3137085 12 12 9.3137085 12 6 C 12 2.6862915 9.3137085 -1.7763568e-15 6 0 z M 6 2 C 8.209139 2 10 3.790861 10 6 C 10 8.209139 8.209139 10 6 10 C 3.790861 10 2 8.209139 2 6 C 2 3.790861 3.790861 2 6 2 z "
                fill="#000000" />
            <path id="path3384"
                d="M 6 2 C 3.790861 2 2 3.790861 2 6 C 2 8.209139 3.790861 10 6 10 C 8.209139 10 10 8.209139 10 6 C 10 3.790861 8.209139 2 6 2 z M 6 4 C 7.1045695 4 8 4.8954305 8 6 C 8 7.1045695 7.1045695 8 6 8 C 4.8954305 8 4 7.1045695 4 6 C 4 4.8954305 4.8954305 4 6 4 z "
                fill="#ffffff" />
            <path id="path3391"
                d="M 6 4 C 4.8954305 4 4 4.8954305 4 6 C 4 7.1045695 4.8954305 8 6 8 C 7.1045695 8 8 7.1045695 8 6 C 8 4.8954305 7.1045695 4 6 4 z "
                fill="#000000" />
        </g>
    </g>
    <g transform="translate(14,23)">
        <g transform="translate(15 15) rotate(90) scale(-1,1)">
            <rect id="base" x="0" y="0" width="15" height="15" fill="#000000" />
            <rect id="fill" x="2" y="2" width="6" height="11" fill="#ffffff" />
        </g>
    </g>
</svg>