<svg xmlns="http://www.w3.org/2000/svg" version="1.0" width="62" height="48">
    <metadata>M44x18S30007n18xn17S10e2114xn17S206003xn30</metadata>
    <g transform="translate(0,13)">
        <g transform="scale(1.019 0.991) translate(17.667 -7) rotate(45)">
            <path id="path2824"
                d="M 17.5 0 C 7.8350169 4.7369516e-15 0 7.8350169 0 17.5 C 0 27.164983 7.8350169 35 17.5 35 C 27.164983 35 35 27.164983 35 17.5 C 35 7.8350169 27.164983 -2.3684758e-15 17.5 0 z M 17.5 1.5 C 26.336556 1.5 33.5 8.663444 33.5 17.5 C 33.5 26.336556 26.336556 33.5 17.5 33.5 C 8.663444 33.5 1.5 26.336556 1.5 17.5 C 1.5 8.663444 8.663444 1.5 17.5 1.5 z "
                fill="#000000" />
            <path id="path2891"
                d="M 24.59375 1.53125 C 24.495185 1.4873797 24.412016 1.4170917 24.3125 1.375 C 23.954481 1.2235708 23.557226 1.1590592 23.1875 1.03125 C 22.498863 3.5856862 20.272044 5.5 17.5 5.5 C 14.727956 5.5 12.501137 3.5856862 11.8125 1.03125 C 11.442774 1.1590592 11.045519 1.2235708 10.6875 1.375 C 10.587984 1.4170917 10.504815 1.4873797 10.40625 1.53125 C 11.309268 4.659455 14.081014 7 17.5 7 C 20.918986 7 23.690732 4.659455 24.59375 1.53125 z "
                fill="#000000" />
            <path id="path2878"
                d="M 17.5 0 C 7.8350169 4.7369516e-15 0 7.8350169 0 17.5 C 0 27.164983 7.8350169 35 17.5 35 C 27.164983 35 35 27.164983 35 17.5 C 35 7.8350169 27.164983 -2.3684758e-15 17.5 0 z M 17.5 1.5 C 26.336556 1.5 33.5 8.663444 33.5 17.5 C 33.5 26.336556 26.336556 33.5 17.5 33.5 C 8.663444 33.5 1.5 26.336556 1.5 17.5 C 1.5 8.663444 8.663444 1.5 17.5 1.5 z "
                fill="#000000" />
        </g>
    </g>
    <g transform="translate(32,13)">
        <g transform="scale(0.938 0.915) translate(0 6) rotate(315)">
            <rect id="index" x="0" y="0" width="2" height="16" fill="#000000" />
            <path id="middle"
                d="M 12.59375,4.40625 L 2,15 L 4.8125,15 L 14.03125,5.8125 L 12.59375,4.40625 z"
                fill="#000000" />
            <rect id="base" x="0" y="15" width="15" height="15" fill="#000000" />
        </g>
    </g>
    <g transform="translate(21,0)">
        <g transform="scale(0.957 1)">
            <path id="rect2824"
                d="m 4.75,0 0,4.1875 L 1.125,2.09375 0.375,3.40625 4,5.5 0.375,7.59375 1.125,8.90625 4.75,6.8125 4.75,11 l 1.5,0 0,-4.1875 3.625,2.09375 0.75,-1.3125 L 7,5.5 10.625,3.40625 9.875,2.09375 6.25,4.1875 6.25,0 4.75,0 z"
                fill="#000000" />
            <path id="path2903"
                d="m 16.75,0 0,4.1875 -3.625,-2.09375 -0.75,1.3125 L 16,5.5 l -3.625,2.09375 0.75,1.3125 3.625,-2.09375 0,4.1875 1.5,0 0,-4.1875 3.625,2.09375 0.75,-1.3125 L 19,5.5 22.625,3.40625 21.875,2.09375 18.25,4.1875 18.25,0 16.75,0 z"
                fill="#000000" />
        </g>
    </g>
</svg>