<svg xmlns="http://www.w3.org/2000/svg" version="1.0" width="38" height="124">
    <metadata>M20x100S30126n18xn24S1dc40n4x31S2a530n4x67S34010n8x11</metadata>
    <g transform="translate(0,0)">
        <g transform="scale(1.029 1)">
            <path id="path12"
                d="M 9.21875 15.09375 C 3.73016 18.047138 5.1766369e-17 23.830569 0 30.5 C 0 40.164983 7.835017 48 17.5 48 C 27.164983 48 35 40.164983 35 30.5 C 35 23.830569 31.26984 18.047138 25.78125 15.09375 L 25.09375 16.40625 C 30.101247 19.109714 33.5 24.41012 33.5 30.5 C 33.5 39.336556 26.336556 46.5 17.5 46.5 C 8.663444 46.5 1.5 39.336556 1.5 30.5 C 1.5 24.41012 4.8987534 19.109714 9.90625 16.40625 L 9.21875 15.09375 z "
                fill="#000000" />
            <path id="path10" d="M 9,5 14,10 14.71875,9.28125 10.4375,5 14.71875,0.71875 14,0 9,5 z"
                fill="#000000" />
            <path id="path2831" d="m 13,7 0,-1 6,0 0,1 -6,0 z" fill="#000000" />
            <path id="path2833" d="m 13,4 0,-1 6,0 0,1 -6,0 z" fill="#000000" />
            <path id="path3049"
                d="M 26,11 21,16 20.28125,15.28125 24.5625,11 20.28125,6.71875 21,6 l 5,5 z"
                fill="#000000" />
            <path id="path3051" d="m 22,13 0,-1 -6,0 0,1 6,0 z" fill="#000000" />
            <path id="path3053" d="m 22,10 0,-1 -6,0 0,1 6,0 z" fill="#000000" />
        </g>
    </g>
    <g transform="translate(14,55)">
        <g>
            <rect id="base" x="0" y="17" width="15" height="13" fill="#000000" />
            <rect id="fill" x="2" y="19" width="6" height="9" fill="#ffffff" />
            <rect id="index" x="13" y="0" width="2" height="15" fill="#000000" />
            <rect id="thumb" x="16" y="22" width="8" height="2" fill="#000000" />
        </g>
    </g>
    <g transform="translate(14,91)">
        <g>
            <path id="path2904"
                d="M 9.5,8 C 7.014719,8 4.753679,8.99632 3.125,10.625 L 0,13.78125 0.6875,14.5 3.84375,11.34375 C 5.291465,9.896035 7.290862,9 9.5,9 c 2.209139,0 4.208535,0.896035 5.65625,2.34375 L 18.3125,14.5 19,13.78125 15.875,10.625 C 14.24632,8.99632 11.985281,8 9.5,8 z"
                fill="#000000" />
            <path id="path2845"
                d="M 9.5,14 C 7.014719,14 4.753679,14.99632 3.125,16.625 L 0,19.78125 0.6875,20.5 3.84375,17.34375 C 5.291465,15.896035 7.290862,15 9.5,15 c 2.209139,0 4.208535,0.896035 5.65625,2.34375 L 18.3125,20.5 19,19.78125 15.875,16.625 C 14.24632,14.99632 11.985281,14 9.5,14 z"
                fill="#000000" />
            <path id="path2847"
                d="M 9.5,20 C 7.014719,20 4.753679,20.99632 3.125,22.625 L 0,25.78125 0.6875,26.5 3.84375,23.34375 C 5.291465,21.896035 7.290862,21 9.5,21 c 2.209139,0 4.208535,0.896035 5.65625,2.34375 L 18.3125,26.5 19,25.78125 15.875,22.625 C 14.24632,20.99632 11.985281,20 9.5,20 z"
                fill="#000000" />
            <rect id="rect2870" x="9" y="0" width="1" height="33" fill="#000000" />
        </g>
    </g>
    <g transform="translate(10,35)">
        <g transform="scale(0.882 1)">
            <path id="path2935"
                d="M 0.125 0 C 2.041393 3.62971 5.072318 6 8.5 6 C 11.927682 6 14.958607 3.62971 16.875 0 L 0.125 0 z M 2.78125 1.5 L 14.21875 1.5 C 12.842831 3.3366561 10.794247 4.5 8.5 4.5 C 6.2057527 4.5 4.1571687 3.3366561 2.78125 1.5 z "
                fill="#000000" />
        </g>
    </g>
</svg>